#!OML:ASF I:\Actors\actors\Patient Classification 2\Patient 1\Session 1\actor1.ASF
:FULLY-SPECIFIED
:DEGREES
239
root -0.670169 18.6496 6.30999 0.505141 2.11875 -3.50256
lowerback 1.93142 3.50319 1.33779
upperback -3.23782 4.78709 1.20059
thorax -4.41416 2.35935 0.21791
lowerneck -7.75951 -9.01529 -13.723
upperneck 28.5436 -12.4789 7.4037
head 12.0183 -6.29918 3.402
rclavicle 2.00648e-015 9.93923e-017
rhumerus 23.6325 14.1453 -50.2728
rradius 108.484
rwrist -2.9402
rhand -40.3623 -12.1549
rfingers 7.12502
rthumb -13.317 -41.7094
lclavicle 2.00648e-015 9.93923e-017
lhumerus 40.6324 23.7836 33.3614
lradius 140.73
lwrist 9.12064
lhand -12.4161 -47.9459
lfingers 7.12502
lthumb 13.656 -18.4139
rfemur 0 0 0
rtibia 0
rfoot 0 0
rtoes 0
lfemur -3.54834 -8.5789 -11.0785
ltibia 23.359
lfoot -23.6243 12.1696
ltoes -56.1834
240
root -0.66866 18.6503 6.30873 0.516173 2.08035 -3.49572
lowerback 1.92249 3.50862 1.37419
upperback -3.20807 4.79417 1.1849
thorax -4.37373 2.36174 0.183143
lowerneck -7.86295 -9.008 -13.7139
upperneck 28.7445 -12.4827 7.44114
head 12.1222 -6.293 3.41148
rclavicle -1.28589e-015 2.78299e-015
rhumerus 23.7503 14.0877 -50.2891
rradius 108.472
rwrist -2.90963
rhand -40.4248 -12.2635
rfingers 7.12502
rthumb -13.3773 -41.8141
lclavicle -1.28589e-015 2.78299e-015
lhumerus 40.7229 23.7447 33.3624
lradius 140.73
lwrist 9.16798
lhand -12.2518 -47.805
lfingers 7.12502
lthumb 13.8144 -18.2837
rfemur 0 0 0
rtibia 0
rfoot 0 0
rtoes 0
lfemur -3.55494 -8.47268 -11.0727
ltibia 23.3618
lfoot -23.6253 12.0353
ltoes -56.1296
241
root -0.666908 18.6518 6.30713 0.541579 2.04297 -3.51933
lowerback 1.87999 3.51154 1.4564
upperback -3.17192 4.79876 1.17092
thorax -4.30405 2.36176 0.127567
lowerneck -7.88968 -8.98883 -13.6475
upperneck 28.7965 -12.4757 7.46728
head 12.1437 -6.27919 3.41153
rclavicle 7.45443e-015 7.7526e-015
rhumerus 23.9343 14.0166 -50.3024
rradius 108.429
rwrist -2.81894
rhand -40.4428 -12.4502
rfingers 7.12502
rthumb -13.3946 -41.9996
lclavicle 7.45443e-015 7.7526e-015
lhumerus 40.7858 23.7468 33.3431
lradius 140.78
lwrist 9.23833
lhand -12.2156 -47.6221
lfingers 7.12502
lthumb 13.8492 -18.1032
rfemur 0 0 0
rtibia 0
rfoot 0 0
rtoes 0
lfemur -3.57867 -8.46488 -11.0431
ltibia 23.3753
lfoot -23.6774 11.9847
ltoes -56.0288
242
root -0.665635 18.6525 6.30535 0.562027 2.0002 -3.54684
lowerback 1.87636 3.50821 1.5194
upperback -3.1634 4.79658 1.17423
thorax -4.28831 2.35881 0.0969385
lowerneck -7.87562 -8.96002 -13.5347
upperneck 28.8113 -12.4406 7.40917
head 12.1283 -6.25847 3.37811
rclavicle -7.1314e-015 -1.39149e-014
rhumerus 24.0505 14.0427 -50.3154
rradius 108.461
rwrist -2.73569
rhand -40.416 -12.8056
rfingers 7.12502
rthumb -13.3688 -42.3567
lclavicle -7.1314e-015 -1.39149e-014
lhumerus 40.7899 23.7209 33.3346
lradius 140.788
lwrist 9.23588
lhand -12.3353 -47.62
lfingers 7.12502
lthumb 13.7338 -18.0933
rfemur 0 0 0
rtibia 0
rfoot 0 0
rtoes 0
lfemur -3.59324 -8.48182 -11.0119
ltibia 23.3883
lfoot -23.7327 11.9749
ltoes -55.9094
243
root -0.664262 18.653 6.30345 0.573016 1.95824 -3.55317
lowerback 1.91242 3.50711 1.55298
upperback -3.15852 4.79764 1.18373
thorax -4.30178 2.35822 0.0858401
lowerneck -7.91798 -8.96288 -13.5102
upperneck 28.8571 -12.4306 7.35342
head 12.1481 -6.25631 3.35309
rclavicle -2.01269e-015 4.77083e-015
rhumerus 24.1052 14.0581 -50.3053
rradius 108.522
rwrist -2.78333
rhand -40.3531 -13.0067
rfingers 7.12502
rthumb -13.3081 -42.5618
lclavicle -2.01269e-015 4.77083e-015
lhumerus 40.8047 23.705 33.4007
lradius 140.75
lwrist 9.14609
lhand -12.5009 -47.7843
lfingers 7.12502
lthumb 13.5743 -18.2468
rfemur 0 0 0
rtibia 0
rfoot 0 0
rtoes 0
lfemur -3.60201 -8.41516 -11.0023
ltibia 23.387
lfoot -23.7066 11.9632
ltoes -55.9752
244
root -0.663281 18.6542 6.30118 0.607102 1.93141 -3.50384
lowerback 1.91394 3.50705 1.51532
upperback -3.13568 4.79549 1.18261
thorax -4.28181 2.3586 0.10635
lowerneck -7.93389 -8.97562 -13.5561
upperneck 28.8072 -12.4406 7.37441
head 12.1381 -6.26263 3.36553
rclavicle -3.09359e-015 -9.54166e-015
rhumerus 24.1732 14.0286 -50.2421
rradius 108.515
rwrist -2.85517
rhand -40.374 -12.9007
rfingers 7.12502
rthumb -13.3283 -42.4545
lclavicle -3.09359e-015 -9.54166e-015
lhumerus 40.8477 23.7663 33.4896
lradius 140.782
lwrist 9.11842
lhand -12.4966 -47.7885
lfingers 7.12502
lthumb 13.5784 -18.2513
rfemur 0 0 0
rtibia 0
rfoot 0 0
rtoes 0
lfemur -3.64039 -8.32423 -11.0481
ltibia 23.3762
lfoot -23.6662 11.9416
ltoes -56.0412
245
root -0.663011 18.6552 6.2986 0.670172 1.92759 -3.45277
lowerback 1.87936 3.49106 1.45995
upperback -3.11788 4.77054 1.18081
thorax -4.24809 2.34838 0.139386
lowerneck -7.90699 -8.97169 -13.6107
upperneck 28.6896 -12.4328 7.42133
head 12.0923 -6.26032 3.39344
rclavicle 7.647e-014 2.23136e-014
rhumerus 24.2537 14.0218 -50.1595
rradius 108.488
rwrist -2.93904
rhand -40.3353 -12.7208
rfingers 7.12502
rthumb -13.291 -42.277
lclavicle 7.647e-014 2.23136e-014
lhumerus 40.8623 23.8365 33.5414
lradius 140.822
lwrist 9.10262
lhand -12.2765 -47.7583
lfingers 7.12502
lthumb 13.7906 -18.2354
rfemur 0 0 0
rtibia 0
rfoot 0 0
rtoes 0
lfemur -3.71473 -8.31838 -11.0937
ltibia 23.3608
lfoot -23.6648 11.9443
ltoes -55.9616
246
root -0.662418 18.6555 6.29682 0.715453 1.92878 -3.48903
lowerback 1.84108 3.46441 1.48064
upperback -3.09879 4.73548 1.21143
thorax -4.20767 2.3313 0.164533
lowerneck -7.92539 -8.96196 -13.675
upperneck 28.6175 -12.4089 7.45686
head 12.0719 -6.25176 3.41953
rclavicle 2.56588e-014 1.23246e-014
rhumerus 24.3137 14.0461 -50.0895
rradius 108.496
rwrist -3.06397
rhand -40.1593 -12.7378
rfingers 7.12502
rthumb -13.1213 -42.305
lclavicle 2.56588e-014 1.23246e-014
lhumerus 40.8555 23.9005 33.5945
lradius 140.796
lwrist 9.06514
lhand -12.1094 -47.8395
lfingers 7.12502
lthumb 13.9516 -18.3276
rfemur 0 0 0
rtibia 0
rfoot 0 0
rtoes 0
lfemur -3.7628 -8.39514 -11.0568
ltibia 23.3402
lfoot -23.6739 12.0197
ltoes -55.8917
247
root -0.661564 18.6554 6.29558 0.726307 1.93268 -3.51184
lowerback 1.83769 3.44568 1.48745
upperback -3.08321 4.71099 1.23089
thorax -4.19076 2.31943 0.182812
lowerneck -7.98431 -8.95911 -13.7273
upperneck 28.6296 -12.4004 7.49827
head 12.0949 -6.24713 3.44248
rclavicle 4.85469e-014 7.35503e-015
rhumerus 24.3033 14.0876 -50.0199
rradius 108.515
rwrist -3.11279
rhand -40.1387 -12.8788
rfingers 7.12502
rthumb -13.1015 -42.4473
lclavicle 4.85469e-014 7.35503e-015
lhumerus 40.8809 23.9081 33.6641
lradius 140.827
lwrist 9.11611
lhand -11.8662 -47.7749
lfingers 7.12502
lthumb 14.1859 -18.2792
rfemur 0 0 0
rtibia 0
rfoot 0 0
rtoes 0
lfemur -3.767 -8.44164 -11.0358
ltibia 23.3253
lfoot -23.6971 12.0244
ltoes -55.8327
248
root -0.660893 18.6561 6.29404 0.732947 1.95292 -3.46846
lowerback 1.86606 3.43115 1.44545
upperback -3.0788 4.68996 1.21478
thorax -4.20425 2.30987 0.188865
lowerneck -8.02214 -8.95965 -13.7532
upperneck 28.6497 -12.3986 7.51795
head 12.1141 -6.24581 3.45289
rclavicle 4.60901e-014 -2.03754e-015
rhumerus 24.2715 14.0969 -49.977
rradius 108.482
rwrist -3.08034
rhand -40.2402 -12.8449
rfingers 7.12502
rthumb -13.1993 -42.407
lclavicle 4.60901e-014 -2.03754e-015
lhumerus 40.9347 23.8246 33.7161
lradius 140.89
lwrist 9.14123
lhand -11.6241 -47.6641
lfingers 7.12502
lthumb 14.4192 -18.185
rfemur 0 0 0
rtibia 0
rfoot 0 0
rtoes 0
lfemur -3.77559 -8.40173 -11.075
ltibia 23.3192
lfoot -23.7142 11.9205
ltoes -55.8194
249
root -0.660379 18.6571 6.29262 0.747929 1.97467 -3.45067
lowerback 1.87965 3.41037 1.42429
upperback -3.08085 4.66149 1.20706
thorax -4.21517 2.29612 0.193154
lowerneck -8.02209 -8.94182 -13.7508
upperneck 28.6445 -12.371 7.51287
head 12.1077 -6.23381 3.45506
rclavicle 7.9048e-015 5.86415e-015
rhumerus 24.243 14.1072 -50.022
rradius 108.403
rwrist -3.05171
rhand -40.24 -12.7871
rfingers 7.12502
rthumb -13.1992 -42.3493
lclavicle 7.9048e-015 5.86415e-015
lhumerus 40.9583 23.7387 33.7439
lradius 140.879
lwrist 9.06636
lhand -11.665 -47.7032
lfingers 7.12502
lthumb 14.3798 -18.2213
rfemur 0 0 0
rtibia 0
rfoot 0 0
rtoes 0
lfemur -3.79523 -8.40163 -11.0903
ltibia 23.3079
lfoot -23.7267 11.9066
ltoes -55.8591
250
root -0.660197 18.6571 6.29149 0.764294 1.98033 -3.44712
lowerback 1.86797 3.38789 1.40274
upperback -3.08261 4.63072 1.21633
thorax -4.21294 2.28172 0.216882
lowerneck -8.01662 -8.91883 -13.8286
upperneck 28.6754 -12.341 7.5646
head 12.1252 -6.2232 3.49263
rclavicle -2.76062e-014 4.22417e-015
rhumerus 24.1707 14.1633 -50.1086
rradius 108.376
rwrist -3.0805
rhand -40.2013 -12.67
rfingers 7.12502
rthumb -13.1618 -42.2346
lclavicle -2.76062e-014 4.22417e-015
lhumerus 40.9243 23.6914 33.7904
lradius 140.87
lwrist 9.02696
lhand -11.7765 -47.7739
lfingers 7.12502
lthumb 14.2724 -18.2843
rfemur 0 0 0
rtibia 0
rfoot 0 0
rtoes 0
lfemur -3.81256 -8.44055 -11.0956
ltibia 23.2939
lfoot -23.7308 11.9553
ltoes -55.8676
